# xmcd
#
# Track frame offsets:
#	150
#	15369
#	30386
#	50286
#	63322
#	82970
#	97753
#	116253
#
# Disc length: 1786 seconds
#
# Revision: 0
# Processed by: cddbd v1.5.2PL0 Copyright (c) Steve Scherf et al.
# Submitted via: EasyCDDAExtractor 16.0.6.1
#
DISCID=4806f808
DTITLE=David lebon
DYEAR=1900
DGENRE=
TTITLE0=Puedo Sentirlo
TTITLE1=Todo Esta Caliente
TTITLE2=Mi Cara en la Arena
TTITLE3=No Puedo Frenar
TTITLE4=Te Quiero dar mi amor
TTITLE5=Sueltate Rock and Roll
TTITLE6=Reflejo  de Armadura
TTITLE7=Pensando en un Perfume
EXTD=
EXTT0=
EXTT1=
EXTT2=
EXTT3=
EXTT4=
EXTT5=
EXTT6=
EXTT7=
PLAYORDER=
